<?xml version="1.0" standalone="no"?>
<!DOCTYPE svg PUBLIC "-//W3C//DTD SVG 20010904//EN"
 "http://www.w3.org/TR/2001/REC-SVG-20010904/DTD/svg10.dtd">
<svg version="1.0" xmlns="http://www.w3.org/2000/svg"
 width="512.000000pt" height="512.000000pt" viewBox="0 0 512.000000 512.000000"
 preserveAspectRatio="xMidYMid meet">
<metadata>
Created by potrace 1.11, written by Peter Selinger 2001-2013
</metadata>
<g transform="translate(0.000000,512.000000) scale(0.100000,-0.100000)"
fill="#000000" stroke="none">
<path d="M690 4013 c-31 -16 -281 -292 -585 -645 -123 -143 -135 -211 -50
-295 42 -42 61 -49 125 -44 55 4 86 30 247 215 l168 191 5 -985 c4 -781 8
-993 19 -1025 51 -156 160 -268 319 -328 l57 -22 1208 -3 c868 -2 1219 1 1249
9 144 38 166 235 34 299 -42 20 -53 20 -1238 20 l-1195 0 -43 23 c-30 16 -51
37 -67 67 l-23 43 0 950 0 950 25 -23 c14 -13 88 -96 166 -185 77 -89 154
-169 170 -179 43 -25 119 -24 161 2 67 41 95 133 64 205 -15 35 -615 719 -658
750 -38 28 -114 33 -158 10z"/>
<path d="M1679 4007 c-37 -24 -79 -97 -79 -137 0 -40 42 -113 79 -137 l34 -23
1161 0 c779 0 1173 -4 1199 -11 52 -14 105 -63 117 -109 7 -24 9 -363 8 -979
l-3 -941 -160 182 c-88 100 -175 193 -194 205 -67 45 -160 24 -214 -48 -26
-36 -33 -106 -14 -150 17 -42 613 -724 662 -758 48 -32 123 -32 170 0 48 33
644 716 662 759 31 71 -6 168 -77 205 -44 23 -111 19 -151 -8 -19 -12 -106
-104 -194 -204 l-160 -181 -5 986 c-5 969 -5 988 -26 1044 -57 155 -175 265
-333 312 -49 14 -180 16 -1251 16 l-1197 0 -34 -23z"/>
</g>
</svg>
